<svg 
 xmlns="http://www.w3.org/2000/svg"
 xmlns:xlink="http://www.w3.org/1999/xlink"
 width="49px" height="47px">
<defs>
<filter id="Filter_0">
    <feFlood flood-color="rgb(44, 169, 240)" flood-opacity="1" result="floodOut" />
    <feComposite operator="atop" in="floodOut" in2="SourceGraphic" result="compOut" />
    <feBlend mode="normal" in="compOut" in2="SourceGraphic" />
</filter>

</defs>
<g filter="url(#Filter_0)">
<path fill-rule="evenodd"  fill="rgb(45, 49, 65)"
 d="M46.686,42.161 C45.298,43.857 43.396,46.180 38.085,46.793 C37.994,46.804 37.654,46.838 37.090,46.838 C34.381,46.838 24.659,45.967 13.270,34.754 C3.075,24.709 -0.456,17.597 1.081,10.206 C2.179,4.924 5.124,2.364 5.711,1.898 C6.681,0.976 7.946,0.469 9.282,0.469 C10.599,0.469 11.828,0.967 12.744,1.871 L19.578,8.602 C21.508,10.501 21.468,13.636 19.487,15.590 L16.824,18.211 C17.979,20.259 19.560,22.957 22.410,25.765 C25.263,28.575 28.011,30.131 30.079,31.263 L32.739,28.643 C33.715,27.682 35.006,27.151 36.373,27.151 C37.687,27.151 38.916,27.647 39.834,28.547 L46.670,35.281 C48.479,37.070 48.485,39.963 46.686,42.161 ZM44.592,37.323 L37.761,30.592 C37.399,30.238 36.905,30.042 36.373,30.042 C35.790,30.042 35.237,30.271 34.814,30.686 L31.988,33.470 C31.522,33.991 30.892,34.277 30.206,34.277 C29.625,34.277 29.161,34.068 28.936,33.944 C26.691,32.718 23.612,31.036 20.334,27.808 C17.046,24.568 15.337,21.531 14.089,19.314 C13.657,18.565 13.564,17.414 14.349,16.562 L14.399,16.511 L17.411,13.548 C18.247,12.722 18.289,11.420 17.503,10.646 L10.667,3.914 C10.305,3.555 9.813,3.359 9.282,3.359 C8.698,3.359 8.143,3.589 7.719,4.007 L7.642,4.083 L7.554,4.146 C7.455,4.221 4.913,6.179 3.956,10.785 C2.644,17.095 5.944,23.447 15.345,32.710 C25.936,43.137 34.666,43.948 37.090,43.948 C37.516,43.948 37.741,43.923 37.743,43.922 C41.864,43.447 43.096,41.941 44.401,40.347 C45.102,39.492 45.460,38.181 44.592,37.323 ZM42.469,20.187 C42.416,20.193 42.362,20.196 42.309,20.196 C41.570,20.196 40.934,19.647 40.852,18.906 C40.576,16.396 39.045,13.443 36.952,11.382 C34.879,9.340 31.910,7.836 29.389,7.550 C28.584,7.459 28.006,6.742 28.099,5.949 C28.192,5.157 28.920,4.587 29.724,4.679 C32.912,5.040 36.476,6.826 39.027,9.338 C41.603,11.875 43.420,15.422 43.770,18.595 C43.857,19.388 43.275,20.101 42.469,20.187 ZM34.580,13.929 C36.015,15.342 37.577,17.805 37.833,20.123 C37.920,20.916 37.337,21.629 36.532,21.715 C36.478,21.721 36.425,21.724 36.372,21.724 C35.632,21.724 34.996,21.175 34.915,20.435 C34.766,19.077 33.752,17.201 32.505,15.973 C31.269,14.755 29.382,13.759 28.018,13.604 C27.213,13.513 26.635,12.796 26.728,12.003 C26.821,11.210 27.548,10.640 28.354,10.733 C30.681,10.997 33.158,12.528 34.580,13.929 Z"/>
</g>
</svg>