<svg xmlns="http://www.w3.org/2000/svg" xmlns:xlink="http://www.w3.org/1999/xlink" width="47.312" height="42.563" viewBox="0 0 47.312 42.563">
  <defs>
    <style>
      .cls-1 {
        fill: #2d3141;
        fill-rule: evenodd;
        filter: url(#filter);
      }
    </style>
    <filter id="filter" x="593.5" y="273.375" width="47.312" height="42.563" filterUnits="userSpaceOnUse">
      <feFlood result="flood" flood-color="#2ca9f0"/>
      <feComposite result="composite" operator="in" in2="SourceGraphic"/>
      <feBlend result="blend" in2="SourceGraphic"/>
    </filter>
  </defs>
  <path id="Forma_1" data-name="Forma 1" class="cls-1" d="M617.146,306.34c1.31,0,12.24-13.744,12.24-20.588a12.241,12.241,0,1,0-24.48,0C604.906,292.6,615.884,306.34,617.146,306.34Zm-7.906-21.022a7.907,7.907,0,1,1,7.906,8A7.955,7.955,0,0,1,609.24,285.318Zm29.644,11.552a2.06,2.06,0,0,0-2.045-2.07h-7.454a0.516,0.516,0,0,0-.531.327c-0.394.668-.359,0.609-0.728,1.228a0.232,0.232,0,0,0,.2.385h8.519a0.133,0.133,0,0,1,.128.13l1.917,17.006a0.132,0.132,0,0,1-.128.129H595.536a0.133,0.133,0,0,1-.129-0.129l1.918-17.006a0.132,0.132,0,0,1,.128-0.13h8.453c0.174,0,.449-0.1.136-0.619-0.368-.606-0.225-0.428-0.615-1.1a0.57,0.57,0,0,0-.619-0.222h-7.355a2.061,2.061,0,0,0-2.045,2.07l-1.917,17.006a2.059,2.059,0,0,0,2.045,2.069h43.221a2.059,2.059,0,0,0,2.044-2.069Z" transform="translate(-593.5 -273.375)"/>
</svg>
