<svg xmlns="http://www.w3.org/2000/svg" xmlns:xlink="http://www.w3.org/1999/xlink" width="47.31" height="52.063" viewBox="0 0 47.31 52.063">
  <defs>
    <style>
      .cls-1 {
        fill: #2d3141;
        fill-rule: evenodd;
        filter: url(#filter);
      }
    </style>
    <filter id="filter" x="1360.97" y="268.625" width="47.31" height="52.063" filterUnits="userSpaceOnUse">
      <feFlood result="flood" flood-color="#2ca9f0"/>
      <feComposite result="composite" operator="in" in2="SourceGraphic"/>
      <feBlend result="blend" in2="SourceGraphic"/>
    </filter>
  </defs>
  <path id="Forma_1" data-name="Forma 1" class="cls-1" d="M1374.08,275.738a16.2,16.2,0,0,1,21.06.072,1.6,1.6,0,0,0,1.09.426,1.629,1.629,0,0,0,1.1-2.829,19.43,19.43,0,0,0-25.42-.086A1.624,1.624,0,1,0,1374.08,275.738Zm1.99,3.266a1.624,1.624,0,1,0,2.17,2.418,10.228,10.228,0,0,1,12.74.042,1.6,1.6,0,0,0,1.09.426,1.629,1.629,0,0,0,1.1-2.829A13.44,13.44,0,0,0,1376.07,279Zm28.42,7.024h-39.75a3.789,3.789,0,0,0-3.78,3.8V316.88a3.79,3.79,0,0,0,3.78,3.8h39.75a3.8,3.8,0,0,0,3.78-3.8V289.825A3.8,3.8,0,0,0,1404.49,286.028Zm0,3.254a0.559,0.559,0,0,1,.19.038l-19.34,14.888a1.382,1.382,0,0,1-1.46,0l-19.33-14.887a0.5,0.5,0,0,1,.19-0.038h39.75Zm0,28.14h-39.75a0.55,0.55,0,0,1-.54-0.542V293.152l17.71,13.638a4.6,4.6,0,0,0,5.4,0l17.72-13.638V316.88A0.55,0.55,0,0,1,1404.49,317.422Z" transform="translate(-1360.97 -268.625)"/>
</svg>
