<svg xmlns="http://www.w3.org/2000/svg" xmlns:xlink="http://www.w3.org/1999/xlink" width="47.31" height="47.344" viewBox="0 0 47.31 47.344">
  <defs>
    <style>
      .cls-1 {
        fill: #2d3141;
        fill-rule: evenodd;
        filter: url(#filter);
      }
    </style>
    <filter id="filter" x="1886.5" y="269.562" width="47.31" height="47.344" filterUnits="userSpaceOnUse">
      <feFlood result="flood" flood-color="#2ca9f0"/>
      <feComposite result="composite" operator="in" in2="SourceGraphic"/>
      <feBlend result="blend" in2="SourceGraphic"/>
    </filter>
  </defs>
  <path id="Forma_1" data-name="Forma 1" class="cls-1" d="M1926.87,276.506a23.647,23.647,0,1,1-16.73-6.93A23.5,23.5,0,0,1,1926.87,276.506Zm-2.09,31.366a20.6,20.6,0,0,0,5.65-10.492c-0.62.916-1.22,1.257-1.59-.8-0.38-3.345-3.45-1.208-5.38-2.4-2.03,1.37-6.6-2.665-5.83,1.886,1.2,2.052,6.47-2.747,3.85,1.6-1.68,3.032-6.13,9.746-5.55,13.227,0.07,5.071-5.18,1.057-6.99-.625-1.22-3.369-.42-9.258-3.6-10.909-3.46-.149-6.43-0.464-7.76-4.328-0.81-2.764.85-6.879,3.81-7.515,4.34-2.724,5.89,3.191,9.96,3.3,1.26-1.321,4.7-1.741,4.99-3.223-2.67-.471,3.38-2.244-0.26-3.252-2.01.236-3.3,2.083-2.23,3.648-3.9.908-4.02-5.633-7.76-3.569-0.1,3.261-6.11,1.057-2.08.4,1.38-.605-2.26-2.358-0.29-2.039,0.96-.053,4.22-1.193,3.34-1.959,1.81-1.125,3.33,2.693,5.1-.087,1.28-2.138-.53-2.533-2.14-1.449-0.9-1.013,1.6-3.2,3.81-4.147a4.341,4.341,0,0,1,1.97-.438c1.11,1.284,3.17,1.507,3.28-.154a20.766,20.766,0,0,0-21.29,2.069c0.96,0.437,1.5.981,0.58,1.677-0.71,2.128-3.61,4.985-6.15,4.58a20.655,20.655,0,0,0-2.57,7.418c2.13,0.7,2.63,2.1,2.17,2.566a7.026,7.026,0,0,0-2.1,3.758A20.7,20.7,0,0,0,1924.78,307.872Z" transform="translate(-1886.5 -269.562)"/>
</svg>
